<svg xmlns="http://www.w3.org/2000/svg" width="28" height="28" viewBox="0 0 28 28">
  <path fill="#000" fill-rule="evenodd" d="M12.631,15.065 L9.609,15.065 C9.273,15.065 9,14.78 9,14.429 C9,14.319 9.027,14.215 9.074,14.125 L9.075,14.123 L9.085,14.104 C9.096,14.086 9.107,14.069 9.118,14.053 L10.437,12.01 L10.437,8.282 L9.609,8.282 C9.303,8.282 9.05,8.047 9.007,7.74 L9,7.647 C9,7.295 9.273,7.011 9.609,7.011 L13.663,7.01 L13.669,7 L13.675,7.01 L17.725,7.011 C18.03,7.011 18.283,7.246 18.327,7.553 L18.333,7.647 C18.333,7.998 18.061,8.282 17.725,8.282 L16.929,8.282 L16.929,12.054 L18.264,14.123 C18.307,14.219 18.333,14.321 18.333,14.429 C18.333,14.78 18.061,15.065 17.725,15.065 L14.648,15.065 L14.275,20.364 C14.275,20.715 14.003,21 13.667,21 C13.33,21 13.058,20.715 13.058,20.364 L12.631,15.065 Z" transform="rotate(45 13.667 14)"/>
</svg>
