<svg xmlns="http://www.w3.org/2000/svg" xmlns:xlink="http://www.w3.org/1999/xlink" width="40" height="40" viewBox="0 0 40 40">
  <defs>
    <path id="ck-a" d="M23.062,12 C26.894,12 30,15.106 30,18.938 C30,22.77 26.894,25.876 23.062,25.876 L22.085,25.876 L18.094,29.733 C17.432,30.372 16.375,29.768 16.526,28.922 L16.55,28.819 L16.563,28.777 C16.794,28.088 16.981,27.489 17.122,26.982 L17.189,26.735 L17.241,26.533 C17.264,26.441 17.344,26.109 17.396,25.874 L16.938,25.876 C13.106,25.876 10,22.77 10,18.938 C10,15.106 13.106,12 16.938,12 L23.062,12 Z M23.859,15.7 C23.656,15.7 23.453,15.777 23.298,15.932 L18.721,20.498 L16.702,18.485 C16.547,18.33 16.344,18.253 16.141,18.253 C15.939,18.253 15.736,18.33 15.581,18.485 C15.426,18.639 15.349,18.841 15.349,19.044 C15.349,19.246 15.426,19.448 15.581,19.603 L18.16,22.175 C18.315,22.33 18.518,22.407 18.721,22.407 C18.923,22.407 19.126,22.33 19.281,22.175 L24.419,17.05 C24.574,16.896 24.651,16.693 24.651,16.491 C24.651,16.289 24.574,16.086 24.419,15.932 C24.264,15.777 24.061,15.7 23.859,15.7 Z"/>
  </defs>
  <g fill="none" fill-rule="evenodd">
    <circle cx="20" cy="20" r="20" fill="#46B1E3"/>
    <use fill="#FFF" fill-rule="nonzero" xlink:href="#ck-a"/>
  </g>
</svg>
