<svg xmlns="http://www.w3.org/2000/svg" width="24" height="24" viewBox="0 0 24 24">
  <g fill="#000" fill-opacity=".9" fill-rule="evenodd">
    <path d="M14.25 2.5c.552 0 1 .448 1 1v16.75h-9V3.5c0-.552.448-1 1-1h7zm-3.5 2a.75.75 0 1 0 0 1.5.75.75 0 0 0 0-1.5z"/>
    <path d="M9 20.25v.75h-.325a.375.375 0 0 0-.367.299l-.008.076c0 .181.129.332.3.367l.075.008h.312c-.072.425-.442.75-.887.75H.9c-.445 0-.815-.324-.887-.749l.562-.001a.375.375 0 0 0 .375-.375.375.375 0 0 0-.299-.367L.575 21H0l.625-.75H9zm-2.875.75h-2.25a.375.375 0 0 0-.375.375c0 .181.129.332.3.367l.075.008h3.25a.375.375 0 0 0 .375-.375.375.375 0 0 0-.375-.375zM9 0c1.38 0 2.5 1.12 2.5 2.5v17h-.125a.375.375 0 0 0-.367.299l-.008.076c0 .181.129.332.3.367l.075.008h.093c-.111.432-.503.75-.968.75h-.75l.001-18.249c0-.967-.783-1.75-1.75-1.75H3a2.5 2.5 0 0 1-2.25-1.5L.75 1H9zM4.5 3.75a.75.75 0 1 1 0 1.5.75.75 0 0 1 0-1.5z" transform="translate(6.25 .75)"/>
  </g>
</svg>
