<svg xmlns="http://www.w3.org/2000/svg" width="24" height="24" viewBox="0 0 24 24">
  <g fill="#000" fill-rule="evenodd" opacity=".9">
    <path d="M6.379 0c.398 0 .78.158 1.06.44l3.268 3.267c.188.188.442.293.707.293H18c.432 0 .85.175 1.148.476A1.61 1.61 0 0 1 19.5 4.5H10.957L9.457 1H16.5c1.933 0 3.5 1.567 3.5 3.5V8c0 2.209-1.791 4-4 4H4c-2.209 0-4-1.791-4-4V4c0-2.209 1.791-4 4-4h2.379zM6.379 1.5H4c-1.357 0-2.462 1.082-2.5 2.43V14c0 1.357 1.082 2.462 2.43 2.5H18c1.357 0 2.462-1.082 2.5-2.43V8c0-1.357-1.082-2.462-2.57-2.5h-6.516c-.635 0-1.246-.242-1.708-.675l-.06-.057L6.379 1.5z" transform="translate(1 3)"/>
    <path d="M11.6 14.4a.6.6 0 1 1-1.2 0v-2.8H7.6a.6.6 0 1 1 0-1.2h2.8V7.6a.6.6 0 1 1 1.2 0v6.8zm.799-4h2.001a.6.6 0 1 1 0 1.2H12.4v-1.2z" transform="translate(1 3)"/>
  </g>
</svg>
