<svg xmlns="http://www.w3.org/2000/svg" width="24" height="24" viewBox="0 0 24 24">
  <path fill="#64BB5C" d="M2.25 0H9l4.5 4.5v9.75c0 1.243-1.007 2.25-2.25 2.25H2.25C1.007 16.5 0 15.493 0 14.25V2.25C0 1.007 1.007 0 2.25 0z"/>
  <path fill="#FFF" d="M9.658 12.177v.757a.375.375 0 0 1-.375.375H4.226a.375.375 0 0 1-.375-.375v-.814c.689-1.258 1.832-2.723 3.357-4.676.388-.488.632-.96.632-1.537 0-.753-.474-1.33-1.293-1.33-.755 0-1.197.462-1.313 1.194l-.003.014c-.017.102-.113.171-.215.154l-.006-.001c-.284-.053-.643-.129-1.118-.229l-.054-.011a.095.095 0 0 1-.148-.102c.16-1.158 1.078-2.333 2.892-2.333 1.824 0 2.873 1.241 2.873 2.807 0 .9-.345 1.64-.92 2.35l-2.867 3.515v.03h3.445a.375.375 0 0 1 .375.375z" transform="translate(1 1)"/>
</svg>
