<svg xmlns="http://www.w3.org/2000/svg" width="24" height="24" viewBox="0 0 24 24">
  <path fill="#000" fill-rule="evenodd" opacity=".85" d="M5 3h14a2 2 0 0 1 2 2v14a2 2 0 0 1-2 2H5a2 2 0 0 1-2-2V5a2 2 0 0 1 2-2zm1.5 4a1.25 1.25 0 1 0 0 2.5 1.25 1.25 0 0 0 0-2.5zm2.5 0h4a.75.75 0 0 1 0 1.5H9a.75.75 0 0 1 0-1.5zm-2.5 3a1.25 1.25 0 1 0 0 2.5 1.25 1.25 0 0 0 0-2.5zm2.5 0h7a.75.75 0 0 1 0 1.5H9a.75.75 0 0 1 0-1.5zm-2.5 3a1.25 1.25 0 1 0 0 2.5 1.25 1.25 0 0 0 0-2.5zm2.5 0h5a.75.75 0 0 1 0 1.5H9a.75.75 0 0 1 0-1.5z"/>
</svg>
